<svg width="32" height="32" viewBox="0 0 32 32" fill="none" xmlns="http://www.w3.org/2000/svg">
<path d="M10.2342 14.4738C10.3333 14.8448 10.6492 15.1166 11.0285 15.1619L16.2192 15.7808L16.8381 20.9715C16.8836 21.3562 17.1616 21.6686 17.5262 21.7658C17.8971 21.8648 18.2901 21.7282 18.5199 21.4221L21.6506 17.2362L26.4548 19.2954C26.8076 19.4462 27.2161 19.368 27.4874 19.0967C27.7586 18.8255 27.837 18.417 27.6862 18.0641L25.6268 13.26L29.8127 10.1293C30.1189 9.89944 30.2556 9.50644 30.1564 9.13556C30.0574 8.76457 29.7415 8.49138 29.3621 8.44744L24.1716 7.82857L23.5527 2.63788C23.5079 2.25782 23.2355 1.94257 22.8645 1.84357C22.4936 1.74445 22.1006 1.88113 21.8708 2.18732L18.7401 6.37319L13.9359 4.31394C13.5831 4.16301 13.1746 4.24138 12.9033 4.51263C12.632 4.78388 12.5538 5.19238 12.7046 5.54526L14.7638 10.3494L10.578 13.4801C10.2718 13.7099 10.1353 14.1029 10.2342 14.4738Z" fill="#FE6B37"/>
<path d="M27.4874 5.8385L28.8132 4.51269C29.1796 4.14625 29.1796 3.55331 28.8132 3.18688C28.4469 2.82044 27.8538 2.82044 27.4874 3.18688L26.1615 4.51269C25.7951 4.87912 25.7951 5.47219 26.1615 5.8385C26.528 6.20493 27.1209 6.20493 27.4874 5.8385Z" fill="#FE6B37"/>
<path d="M18.0119 3.65494C18.5122 3.52094 18.8087 3.00688 18.6747 2.5065L18.1892 0.69513C18.0539 0.194693 17.5412 -0.101806 17.0407 0.0321935C16.5404 0.166193 16.2439 0.680255 16.3779 1.18063L16.8634 2.992C16.996 3.48763 17.5075 3.78931 18.0119 3.65494Z" fill="#FE6B37"/>
<path d="M22.379 19.9545C21.8785 20.0885 21.582 20.6026 21.716 21.1029L22.2016 22.9143C22.3342 23.4099 22.8457 23.7116 23.35 23.5772C23.8505 23.4432 24.147 22.9292 24.013 22.4288L23.5274 20.6174C23.3927 20.1177 22.8788 19.8198 22.379 19.9545Z" fill="#FE6B37"/>
<path d="M11.3827 8.47269L9.57135 7.98725C9.07091 7.85325 8.55685 8.14962 8.42285 8.65006C8.28841 9.15519 8.59085 9.66606 9.08579 9.7985L10.8972 10.2841C11.3976 10.4181 11.9115 10.1216 12.0456 9.62112C12.1789 9.12006 11.8811 8.606 11.3827 8.47269Z" fill="#FE6B37"/>
<path d="M28.3452 13.9884C28.2108 14.4934 28.5132 15.0042 29.0082 15.1368L30.8195 15.6222C31.32 15.7562 31.8339 15.4599 31.968 14.9594C32.102 14.459 31.803 13.9437 31.3051 13.811L29.4938 13.3254C28.9933 13.1914 28.4792 13.4879 28.3452 13.9884Z" fill="#FE6B37"/>
<path d="M1.60067 31.7251C1.96698 32.0916 2.56004 32.0916 2.92648 31.7251L14.8142 19.8375L14.5318 17.4683L12.1627 17.1859L0.274734 29.0736C-0.091578 29.44 -0.091578 30.033 0.274734 30.3994L1.60067 31.7251Z" fill="#FE6B37"/>
</svg>
