<svg width="19" height="20" viewBox="0 0 19 20" fill="none" xmlns="http://www.w3.org/2000/svg">
<path d="M18.389 9.05015C18.2988 8.63647 18.0529 8.26593 17.6953 8.00708L16.9015 7.4333C16.5962 7.2128 16.2295 7.09152 15.8661 7.09152C15.3686 7.09152 14.9256 7.30915 14.6519 7.68832L14.128 8.41262C14 8.58854 13.989 8.80473 14.058 8.99503C13.8557 8.99263 13.6515 9.07077 13.5298 9.23854L8.45056 16.2634C8.32305 16.4398 8.31155 16.6575 8.38201 16.8482C8.34894 16.8554 8.31778 16.8645 8.29621 16.8761L8.27032 16.8574L8.27272 16.889C8.20034 16.9331 8.02489 17.0726 8.04886 17.3731L8.21136 19.4578C8.22526 19.6371 8.31011 19.7905 8.4496 19.8917C8.54739 19.9616 8.66435 20 8.78802 20C8.84123 20 8.89636 19.9928 8.94813 19.9784L10.9226 19.4483C11.1239 19.3941 11.2653 19.2565 11.3046 19.0758L11.3291 19.0691L11.3085 19.0552C11.3094 19.0494 11.308 19.0442 11.3085 19.0394C11.3535 19.0494 11.3986 19.0605 11.4451 19.0605C11.6478 19.0605 11.8381 18.9631 11.9561 18.7997L17.0353 11.7753C17.1345 11.6396 17.1738 11.4723 17.1465 11.306C17.1407 11.271 17.1216 11.2413 17.111 11.2087C17.1139 11.2087 17.1177 11.2101 17.1211 11.2101C17.3238 11.2101 17.5146 11.1128 17.6325 10.9489L18.1565 10.2255C18.3986 9.89046 18.481 9.4739 18.389 9.05015ZM14.0652 9.76055L14.9065 10.3698L10.0334 17.273L9.11446 16.6081L14.0652 9.76055ZM8.93566 19.2196L8.82877 17.852L10.2337 18.8678L8.93566 19.2196ZM11.4211 18.2753L10.6168 17.6929L15.4898 10.7902L16.3728 11.4292L11.4211 18.2753ZM17.5578 9.79027L17.0976 10.4259L14.7909 8.75775L15.2506 8.12213C15.4932 7.78754 16.066 7.74488 16.4668 8.03345L17.261 8.60723C17.6781 8.90922 17.8109 9.43939 17.5578 9.79027Z" fill="#ffffff"/>
<path d="M0.859958 6.93335H4.63198C5.07969 6.93335 5.44352 6.56952 5.44352 6.12228V0.859957H13.7502V7.30724H14.6111V0.811063C14.6111 0.363349 14.2468 0 13.7996 0H5.39463C5.12283 0 4.81173 0.12607 4.59842 0.316852C4.5385 0.36239 4.48673 0.41416 4.44024 0.475517L0.316852 5.94013C0.13326 6.18268 0 6.58006 0 6.88493V18.1545C0 18.6027 0.363828 18.9656 0.811064 18.9656H7.41222V18.1051H0.859958V6.93335ZM4.58308 1.71368V6.07291H1.29329L4.58308 1.71368Z" fill="#ffffff"/>
</svg>
