<svg width="32" height="32" viewBox="0 0 32 32" fill="none" xmlns="http://www.w3.org/2000/svg">
<g clip-path="url(#clip0)">
<path d="M28.8 3.2H27.2V1.6C27.2 0.64 26.56 0 25.6 0C24.64 0 24 0.64 24 1.6V3.2H8V1.6C8 0.64 7.36 0 6.4 0C5.44 0 4.8 0.64 4.8 1.6V3.2H1.6C0.8 3.2 0 3.84 0 4.8V27.2C0 28.16 0.8 28.8 1.6 28.8H11.36C10.24 26.88 9.6 24.64 9.6 22.4C9.6 15.36 15.36 9.6 22.4 9.6C25.44 9.6 28.16 10.72 30.4 12.48V4.8C30.4 4 29.6 3.2 28.8 3.2Z" fill="#DE2E49"/>
<path d="M22.4 12.8C17.12 12.8 12.8 17.12 12.8 22.4C12.8 27.68 17.12 32 22.4 32C27.68 32 32 27.68 32 22.4C32 17.12 27.68 12.8 22.4 12.8ZM25.6 24H22.4C21.44 24 20.8 23.36 20.8 22.4V17.6C20.8 16.64 21.44 16 22.4 16C23.36 16 24 16.64 24 17.6V20.8H25.6C26.56 20.8 27.2 21.44 27.2 22.4C27.2 23.36 26.56 24 25.6 24Z" fill="#DE2E49"/>
</g>
<defs>
<clipPath id="clip0">
<rect width="32" height="32" fill="white"/>
</clipPath>
</defs>
</svg>
