<svg width="32" height="32" viewBox="0 0 32 32" fill="none" xmlns="http://www.w3.org/2000/svg">
<g clip-path="url(#clip0)">
<path d="M31.1368 13.9185C31.136 13.9177 31.1353 13.917 31.1346 13.9163L18.0811 0.863281C17.5247 0.306641 16.7849 0 15.9981 0C15.2112 0 14.4715 0.306396 13.9148 0.863037L0.868197 13.9094C0.863802 13.9138 0.859408 13.9185 0.855013 13.9229C-0.287565 15.072 -0.285612 16.9365 0.860629 18.0828C1.38431 18.6067 2.07596 18.9102 2.81546 18.9419C2.84549 18.9448 2.87577 18.9463 2.90628 18.9463H3.42655V28.5525C3.42655 30.4534 4.97318 32 6.87454 32H11.9815C12.4991 32 12.919 31.5803 12.919 31.0625V23.5312C12.919 22.6638 13.6245 21.9583 14.492 21.9583H17.5042C18.3716 21.9583 19.0772 22.6638 19.0772 23.5312V31.0625C19.0772 31.5803 19.4969 32 20.0147 32H25.1216C27.023 32 28.5696 30.4534 28.5696 28.5525V18.9463H29.052C29.8387 18.9463 30.5784 18.6399 31.1353 18.0833C32.2827 16.9351 32.2832 15.0674 31.1368 13.9185Z" fill="#DE2E49"/>
</g>
<defs>
<clipPath id="clip0">
<rect width="32" height="32" fill="white"/>
</clipPath>
</defs>
</svg>
