<svg width="312" height="189" viewBox="0 0 312 189" fill="none" xmlns="http://www.w3.org/2000/svg">
<g clip-path="url(#clip0)">
<path d="M179.642 71.0585C185.338 71.0585 189.956 66.4346 189.956 60.7308C189.956 55.027 185.338 50.4031 179.642 50.4031C173.946 50.4031 169.328 55.027 169.328 60.7308C169.328 66.4346 173.946 71.0585 179.642 71.0585Z" fill="#2F2E41"/>
<path d="M182.516 50.6873C184.301 50.6876 186.055 51.1516 187.607 52.0341C189.159 52.9165 190.456 54.1872 191.371 55.7219C192.286 57.2566 192.788 59.0027 192.827 60.7897C192.866 62.5766 192.442 64.3431 191.595 65.9165C192.489 64.7963 193.14 63.5017 193.507 62.1155C193.874 60.7292 193.949 59.2816 193.726 57.8649C193.503 56.4482 192.989 55.0934 192.214 53.887C191.44 52.6806 190.423 51.649 189.228 50.8579C188.034 50.0667 186.688 49.5335 185.276 49.2921C183.864 49.0507 182.418 49.1064 181.029 49.4557C179.639 49.8051 178.338 50.4403 177.208 51.321C176.078 52.2017 175.143 53.3086 174.463 54.571C175.427 53.359 176.652 52.3803 178.046 51.7079C179.44 51.0355 180.968 50.6866 182.516 50.6873Z" fill="#2F2E41"/>
<path d="M160.369 60.709C177.102 60.709 190.666 47.1263 190.666 30.3713C190.666 13.6162 177.102 0.0335388 160.369 0.0335388C143.637 0.0335388 130.073 13.6162 130.073 30.3713C130.073 47.1263 143.637 60.709 160.369 60.709Z" fill="#2F2E41"/>
<path d="M136.591 11.5481C141.812 5.66917 149.109 2.05114 156.943 1.45764C164.777 0.864146 172.535 3.34162 178.579 8.36717C178.331 8.13135 178.086 7.89362 177.829 7.66446C171.823 2.32081 163.944 -0.415453 155.924 0.0574529C147.903 0.530359 140.399 4.1737 135.062 10.1862C129.724 16.1987 126.989 24.0881 127.46 32.1191C127.93 40.1502 131.567 47.6653 137.57 53.0117C137.827 53.2409 138.092 53.4568 138.355 53.6755C132.663 48.2534 129.297 40.8288 128.968 32.9688C128.639 25.1088 131.372 17.4282 136.591 11.5481Z" fill="#2F2E41"/>
<path d="M160.113 60.4518C170.889 60.4518 179.626 51.7037 179.626 40.9123C179.626 30.1209 170.889 21.3727 160.113 21.3727C149.336 21.3727 140.599 30.1209 140.599 40.9123C140.599 51.7037 149.336 60.4518 160.113 60.4518Z" fill="#FFB257"/>
<path d="M146.248 47.0827C146.248 47.0827 148.815 70.7358 144.707 73.3068C140.599 75.8778 168.329 79.4772 168.329 79.4772C168.329 79.4772 164.221 53.7673 174.491 47.0827H146.248Z" fill="#FFB257"/>
<path d="M170.896 69.1932C170.896 69.1932 178.542 65.6177 167.53 66.8912C156.518 68.1648 147.017 63.2799 147.017 63.2799C147.017 63.2799 143.68 59.9376 143.167 63.537C142.653 67.1364 144.707 73.8209 133.41 74.8493C122.113 75.8777 111.843 72.7925 107.735 80.5055C103.627 88.2185 105.681 121.641 105.681 121.641C105.681 121.641 113.384 149.408 119.546 153.522C125.708 157.635 179.626 151.979 179.626 151.979L195.031 124.212V91.8179C195.031 91.8179 192.977 80.5055 178.599 83.5907C178.599 83.5907 169.355 81.5339 169.869 76.9061C170.382 72.2784 170.896 69.1932 170.896 69.1932Z" fill="#D0CDE1"/>
<path d="M121.583 173.172C121.901 171.787 122.113 171.004 122.113 171.004L121.949 169.877L120.257 158.374L119.546 153.521C125.707 150.95 127.248 139.123 127.248 139.123L127.481 138.984L128.532 138.354V138.351L132.307 136.084L132.383 136.039L133.908 137.054L137.005 139.123C147.841 147.103 158.876 146.961 165.686 145.704C169.849 144.935 172.436 143.751 172.436 143.751L179.906 141.257L180.138 141.18L180.368 141.214L184.749 141.878L184.828 141.893L185.191 141.947L184.176 148.97L182.705 159.177C186.591 161.237 190.045 165.107 193.066 169.877C193.735 170.933 194.383 172.031 195.01 173.172C195.826 174.647 196.605 176.182 197.348 177.755C197.438 177.942 197.526 178.132 197.614 178.322C197.9 178.938 198.184 179.559 198.458 180.184H120.223C120.325 179.556 120.427 178.958 120.526 178.382C120.532 178.362 120.535 178.342 120.538 178.322C120.575 178.129 120.609 177.942 120.64 177.755C120.986 175.882 121.32 174.318 121.583 173.172Z" fill="#2F2E41"/>
<path d="M118.519 74.3352C118.519 74.3352 124.167 84.6191 122.113 97.4741C120.059 110.329 128.275 142.209 128.275 142.209L134.437 140.667C134.437 140.667 130.329 113.928 131.356 107.758C132.383 101.588 132.383 77.4204 127.248 74.3352C122.113 71.25 118.519 74.3352 118.519 74.3352Z" fill="#FE6B37"/>
<path d="M178.238 85.0223L180.396 141.952L184.504 144.523C184.504 144.523 190.409 82.0482 187.328 82.0482H181.059C180.676 82.0482 180.297 82.1262 179.945 82.2776C179.593 82.429 179.275 82.6505 179.011 82.9287C178.747 83.2069 178.542 83.536 178.409 83.8959C178.277 84.2558 178.218 84.639 178.238 85.0223Z" fill="#FE6B37"/>
<path d="M131.1 140.924C132.518 140.924 133.667 139.773 133.667 138.353C133.667 136.933 132.518 135.782 131.1 135.782C129.682 135.782 128.532 136.933 128.532 138.353C128.532 139.773 129.682 140.924 131.1 140.924Z" fill="#6C63FF"/>
<path d="M182.45 143.495C183.868 143.495 185.018 142.344 185.018 140.924C185.018 139.504 183.868 138.353 182.45 138.353C181.032 138.353 179.883 139.504 179.883 140.924C179.883 142.344 181.032 143.495 182.45 143.495Z" fill="#6C63FF"/>
<path d="M143.424 16.4877V36.0273H147.943L153.694 29.8569L152.924 36.0273H172.899L171.666 29.8569L174.131 36.0273H177.315V16.4877H143.424Z" fill="#2F2E41"/>
<path d="M140.343 39.6268C141.193 39.6268 141.883 38.3606 141.883 36.7987C141.883 35.2368 141.193 33.9706 140.343 33.9706C139.492 33.9706 138.802 35.2368 138.802 36.7987C138.802 38.3606 139.492 39.6268 140.343 39.6268Z" fill="#FFB257"/>
<path d="M179.883 39.6268C180.733 39.6268 181.423 38.3606 181.423 36.7987C181.423 35.2368 180.733 33.9706 179.883 33.9706C179.032 33.9706 178.342 35.2368 178.342 36.7987C178.342 38.3606 179.032 39.6268 179.883 39.6268Z" fill="#FFB257"/>
<path d="M190.409 140.667C190.409 140.667 167.045 136.296 165.504 144.009C163.964 151.722 191.436 148.38 191.436 148.38L190.409 140.667Z" fill="#FFB8B8"/>
<path d="M189.896 87.7043C189.896 87.7043 245.868 132.44 235.598 143.238C225.328 154.036 186.301 150.951 186.301 150.951L188.869 138.096L211.463 135.525L200.166 124.212L189.896 125.241V87.7043Z" fill="#D0CDE1"/>
<path d="M107.222 162.263L114.411 167.919C114.411 167.919 119.546 183.859 127.248 179.232C134.951 174.604 120.059 158.15 120.059 158.15L111.33 155.064L107.222 162.263Z" fill="#FFB8B8"/>
<path d="M114.411 79.4772L107.241 81.6377C107.241 81.6377 57.4117 118.556 55.3577 128.84C53.3037 139.124 65.1143 144.78 65.1143 144.78L109.789 165.863L114.411 153.522L93.357 142.724C93.357 142.724 94.8975 139.638 88.7355 139.124C82.5734 138.61 81.5464 131.925 81.5464 131.925C81.5464 131.925 93.8705 112.9 100.546 117.014C107.222 121.127 109.276 124.212 109.276 124.212L114.411 79.4772Z" fill="#D0CDE1"/>
<path d="M216.671 174.934V176.656C216.672 177.129 216.585 177.598 216.414 178.038C216.337 178.235 216.245 178.424 216.139 178.606C215.801 179.173 215.322 179.644 214.748 179.97C214.174 180.296 213.526 180.468 212.866 180.467H86.3229C85.663 180.468 85.0144 180.296 84.4406 179.97C83.8668 179.644 83.3876 179.173 83.0499 178.606C82.943 178.424 82.8511 178.235 82.775 178.038C82.6036 177.598 82.5161 177.129 82.5171 176.656V174.934C82.517 174.433 82.6153 173.938 82.8065 173.475C82.9977 173.013 83.2781 172.593 83.6315 172.239C83.9849 171.885 84.4045 171.604 84.8663 171.413C85.3281 171.221 85.8231 171.123 86.3229 171.123H93.617V170.32C93.617 170.299 93.6211 170.278 93.629 170.259C93.637 170.24 93.6487 170.222 93.6634 170.207C93.6782 170.193 93.6957 170.181 93.715 170.173C93.7342 170.165 93.7549 170.161 93.7757 170.161H97.5815C97.6024 170.161 97.623 170.165 97.6423 170.173C97.6615 170.181 97.6791 170.193 97.6938 170.207C97.7085 170.222 97.7202 170.24 97.7282 170.259C97.7362 170.278 97.7402 170.299 97.7402 170.32V171.123H100.118V170.32C100.118 170.299 100.122 170.278 100.13 170.259C100.138 170.24 100.149 170.222 100.164 170.207C100.179 170.193 100.196 170.181 100.216 170.173C100.235 170.165 100.256 170.161 100.276 170.161H104.082C104.103 170.161 104.124 170.165 104.143 170.173C104.162 170.181 104.18 170.193 104.195 170.207C104.209 170.222 104.221 170.24 104.229 170.259C104.237 170.278 104.241 170.299 104.241 170.32V171.123H106.621V170.32C106.621 170.299 106.625 170.278 106.633 170.259C106.641 170.24 106.653 170.222 106.668 170.207C106.682 170.193 106.7 170.181 106.719 170.173C106.738 170.165 106.759 170.161 106.78 170.161H110.586C110.607 170.161 110.627 170.165 110.647 170.173C110.666 170.181 110.683 170.193 110.698 170.207C110.713 170.222 110.724 170.24 110.732 170.259C110.74 170.278 110.744 170.299 110.744 170.32V171.123H113.122V170.32C113.122 170.299 113.126 170.278 113.134 170.259C113.142 170.24 113.154 170.222 113.168 170.207C113.183 170.193 113.201 170.181 113.22 170.173C113.239 170.165 113.26 170.161 113.281 170.161H117.086C117.107 170.161 117.128 170.165 117.147 170.173C117.167 170.181 117.184 170.193 117.199 170.207C117.214 170.222 117.225 170.24 117.233 170.259C117.241 170.278 117.245 170.299 117.245 170.32V171.123H119.623V170.32C119.623 170.299 119.627 170.278 119.635 170.259C119.643 170.24 119.654 170.222 119.669 170.207C119.684 170.193 119.701 170.181 119.721 170.173C119.74 170.165 119.761 170.161 119.781 170.161H123.587C123.608 170.161 123.629 170.165 123.648 170.173C123.667 170.181 123.685 170.193 123.699 170.207C123.714 170.222 123.726 170.24 123.734 170.259C123.742 170.278 123.746 170.299 123.746 170.32V171.123H126.126V170.32C126.126 170.299 126.13 170.278 126.138 170.259C126.146 170.24 126.158 170.222 126.173 170.207C126.187 170.193 126.205 170.181 126.224 170.173C126.243 170.165 126.264 170.161 126.285 170.161H130.091C130.112 170.161 130.132 170.165 130.151 170.173C130.171 170.181 130.188 170.193 130.203 170.207C130.218 170.222 130.229 170.24 130.237 170.259C130.245 170.278 130.249 170.299 130.249 170.32V171.123H132.627V170.32C132.627 170.299 132.631 170.278 132.639 170.259C132.647 170.24 132.659 170.222 132.673 170.207C132.688 170.193 132.706 170.181 132.725 170.173C132.744 170.165 132.765 170.161 132.786 170.161H162.597C162.618 170.161 162.639 170.165 162.658 170.173C162.677 170.181 162.695 170.193 162.709 170.207C162.724 170.222 162.736 170.24 162.744 170.259C162.752 170.278 162.756 170.299 162.756 170.32V171.123H165.136V170.32C165.136 170.299 165.14 170.278 165.148 170.259C165.156 170.24 165.168 170.222 165.183 170.207C165.197 170.193 165.215 170.181 165.234 170.173C165.253 170.165 165.274 170.161 165.295 170.161H169.101C169.143 170.161 169.183 170.178 169.212 170.208C169.242 170.238 169.259 170.278 169.259 170.32V171.123H171.637V170.32C171.637 170.299 171.641 170.278 171.649 170.259C171.657 170.24 171.669 170.222 171.683 170.207C171.698 170.193 171.716 170.181 171.735 170.173C171.754 170.165 171.775 170.161 171.796 170.161H175.601C175.622 170.161 175.643 170.165 175.662 170.173C175.681 170.181 175.699 170.193 175.714 170.207C175.728 170.222 175.74 170.24 175.748 170.259C175.756 170.278 175.76 170.299 175.76 170.32V171.123H178.138V170.32C178.138 170.299 178.142 170.278 178.15 170.259C178.158 170.24 178.169 170.222 178.184 170.207C178.199 170.193 178.216 170.181 178.236 170.173C178.255 170.165 178.275 170.161 178.296 170.161H182.102C182.123 170.161 182.144 170.165 182.163 170.173C182.182 170.181 182.2 170.193 182.214 170.207C182.229 170.222 182.241 170.24 182.249 170.259C182.257 170.278 182.261 170.299 182.261 170.32V171.123H184.641V170.32C184.641 170.299 184.645 170.278 184.653 170.259C184.661 170.24 184.673 170.222 184.688 170.207C184.702 170.193 184.72 170.181 184.739 170.173C184.758 170.165 184.779 170.161 184.8 170.161H188.606C188.647 170.162 188.687 170.179 188.716 170.208C188.745 170.238 188.762 170.278 188.761 170.32V171.123H191.142V170.32C191.142 170.299 191.146 170.278 191.154 170.259C191.162 170.24 191.173 170.222 191.188 170.207C191.203 170.193 191.22 170.181 191.24 170.173C191.259 170.165 191.28 170.161 191.301 170.161H195.106C195.127 170.161 195.148 170.165 195.167 170.173C195.186 170.181 195.204 170.193 195.219 170.207C195.233 170.222 195.245 170.24 195.253 170.259C195.261 170.278 195.265 170.299 195.265 170.32V171.123H197.643V170.32C197.643 170.299 197.647 170.278 197.655 170.259C197.663 170.24 197.674 170.222 197.689 170.207C197.704 170.193 197.721 170.181 197.74 170.173C197.76 170.165 197.78 170.161 197.801 170.161H201.607C201.628 170.161 201.648 170.165 201.668 170.173C201.687 170.181 201.705 170.193 201.719 170.207C201.734 170.222 201.746 170.24 201.754 170.259C201.762 170.278 201.766 170.299 201.766 170.32V171.123H212.866C213.365 171.123 213.86 171.221 214.322 171.413C214.784 171.604 215.204 171.885 215.557 172.239C215.91 172.593 216.191 173.013 216.382 173.475C216.573 173.938 216.672 174.433 216.671 174.934Z" fill="#FE4F60"/>
<path d="M253.468 178.037H45.751V178.604H253.468V178.037Z" fill="#3F3D56"/>
<path d="M206.482 102.395H159.315V101.421H137.928V102.395H90.5674C89.7212 102.395 88.9097 102.731 88.3114 103.33C87.7131 103.929 87.377 104.742 87.377 105.589V170.262C87.377 171.109 87.7131 171.922 88.3114 172.521C88.9097 173.12 89.7212 173.457 90.5674 173.457H206.482C207.328 173.457 208.139 173.12 208.738 172.521C209.336 171.922 209.672 171.109 209.672 170.262V105.589C209.672 105.17 209.59 104.754 209.429 104.367C209.269 103.979 209.034 103.627 208.738 103.33C208.441 103.034 208.09 102.798 207.703 102.638C207.315 102.477 206.901 102.395 206.482 102.395Z" fill="#FE4F60"/>
<path d="M148.617 132.067C152.53 132.067 155.702 128.891 155.702 124.973C155.702 121.055 152.53 117.879 148.617 117.879C144.705 117.879 141.533 121.055 141.533 124.973C141.533 128.891 144.705 132.067 148.617 132.067Z" stroke="#D0CDE1" stroke-width="2" stroke-miterlimit="10"/>
<path d="M146.35 134.621C150.263 134.621 153.435 131.445 153.435 127.527C153.435 123.609 150.263 120.433 146.35 120.433C142.438 120.433 139.266 123.609 139.266 127.527C139.266 131.445 142.438 134.621 146.35 134.621Z" fill="#D0CDE1"/>
<path d="M60.9321 188.291H7.37354V188.932H60.9321V188.291Z" fill="#3F3D56"/>
<path d="M294.72 188.291H241.161V188.932H294.72V188.291Z" fill="#3F3D56"/>
<path d="M38.5791 167.623C32.9367 176.847 34.878 188.321 34.878 188.321C34.878 188.321 45.9673 184.84 51.6097 175.616C57.252 166.391 55.3108 154.918 55.3108 154.918C55.3108 154.918 44.2214 158.399 38.5791 167.623Z" fill="#42434D"/>
<path d="M34.6476 188.397L34.3268 188.346C34.2108 188.328 22.6635 186.412 15.7479 178.127C8.83222 169.841 8.99864 158.121 9.00091 158.004L9.00779 157.679L9.3286 157.73C9.44462 157.748 20.9919 159.664 27.9076 167.95C34.8232 176.235 34.6567 187.955 34.6545 188.072L34.6476 188.397Z" fill="#FE4F60"/>
<path d="M35.1032 188.689L34.7933 188.592C34.6812 188.556 23.5373 184.972 17.9045 175.764C12.2718 166.555 14.1462 154.986 14.1655 154.87L14.2198 154.55L14.5297 154.647C14.6418 154.682 25.7857 158.267 31.4185 167.475C37.0512 176.683 35.1768 188.252 35.1575 188.368L35.1032 188.689ZM14.677 155.296C14.4204 157.238 13.3979 167.31 18.3877 175.467C23.3779 183.625 32.8024 187.288 34.646 187.942C34.9026 186 35.9251 175.929 30.9353 167.771C25.9451 159.614 16.5206 155.95 14.677 155.296H14.677Z" fill="#3F3D56"/>
<path d="M35.2299 158.432C38.673 158.432 41.4642 155.637 41.4642 152.189C41.4642 148.742 38.673 145.947 35.2299 145.947C31.7868 145.947 28.9956 148.742 28.9956 152.189C28.9956 155.637 31.7868 158.432 35.2299 158.432Z" fill="#42434D"/>
<path d="M113.292 73.2827L77.5273 37.1873H60.6431V36.6198H77.764L77.8473 36.7041L113.695 72.8837L113.292 73.2827Z" fill="#3F3D56"/>
<path d="M197.291 72.1476L233.055 36.0523H249.94V35.4847H232.819L232.736 35.569L196.888 71.7487L197.291 72.1476Z" fill="#3F3D56"/>
<path d="M41.3733 19.3922H0V27.5864H41.3733V19.3922Z" fill="#D0CDE1"/>
<path d="M41.3733 31.9661H0V40.1604H41.3733V31.9661Z" fill="#D0CDE1"/>
<path d="M41.3733 44.54H0V52.7342H41.3733V44.54Z" fill="#D0CDE1"/>
<path opacity="0.15" d="M17.1157 19.3922H0V27.5864H17.1157V19.3922Z" fill="black"/>
<path opacity="0.15" d="M5.54106 31.9661H0V40.1603H5.54106V31.9661Z" fill="black"/>
<path opacity="0.15" d="M27.5822 44.54H0V52.7342H27.5822V44.54Z" fill="black"/>
<path d="M312 21.233H270.563V24.9304H312V21.233Z" fill="#D0CDE1"/>
<path d="M263.246 20.7545H255.041V28.9709H263.246V20.7545Z" fill="#FE4F60"/>
<path d="M263.246 33.079H255.041V41.2955H263.246V33.079Z" fill="#FE4F60"/>
<path d="M263.246 45.4037H255.041V53.6201H263.246V45.4037Z" fill="#FE4F60"/>
<path d="M265.513 27.2683H256.741V18.4843H265.513V27.2683ZM257.308 26.7008H264.946V19.0518H257.308V26.7008Z" fill="#3F3D56"/>
<path d="M312 33.5577H270.563V37.2551H312V33.5577Z" fill="#D0CDE1"/>
<path d="M265.513 39.5929H256.741V30.809H265.513V39.5929ZM257.308 39.0254H264.946V31.3765H257.308V39.0254Z" fill="#3F3D56"/>
<path d="M312 45.8823H270.563V49.5796H312V45.8823Z" fill="#D0CDE1"/>
<path d="M265.513 51.9174H256.741V43.1335H265.513V51.9174ZM257.308 51.3499H264.946V43.7011H257.308V51.3499Z" fill="#3F3D56"/>
<path d="M53.5586 28.1069C56.0627 28.1069 58.0927 26.0742 58.0927 23.5667C58.0927 21.0592 56.0627 19.0265 53.5586 19.0265C51.0545 19.0265 49.0245 21.0592 49.0245 23.5667C49.0245 26.0742 51.0545 28.1069 53.5586 28.1069Z" fill="#FE4F60"/>
<path d="M53.5586 41.7275C56.0627 41.7275 58.0927 39.6948 58.0927 37.1873C58.0927 34.6798 56.0627 32.6471 53.5586 32.6471C51.0545 32.6471 49.0245 34.6798 49.0245 37.1873C49.0245 39.6948 51.0545 41.7275 53.5586 41.7275Z" fill="#FE4F60"/>
<path d="M53.5586 53.9292C56.0627 53.9292 58.0927 51.8965 58.0927 49.389C58.0927 46.8816 56.0627 44.8488 53.5586 44.8488C51.0545 44.8488 49.0245 46.8816 49.0245 49.389C49.0245 51.8965 51.0545 53.9292 53.5586 53.9292Z" fill="#FE4F60"/>
<path d="M51.2914 27.2556C50.3386 27.2556 49.4072 26.9727 48.615 26.4426C47.8228 25.9125 47.2053 25.1591 46.8407 24.2777C46.4761 23.3962 46.3807 22.4263 46.5666 21.4905C46.7524 20.5548 47.2113 19.6952 47.885 19.0206C48.5587 18.3459 49.4171 17.8865 50.3516 17.7004C51.2861 17.5142 52.2547 17.6098 53.135 17.9749C54.0153 18.34 54.7676 18.9583 55.297 19.7516C55.8263 20.5449 56.1089 21.4775 56.1089 22.4316C56.1075 23.7106 55.5994 24.9368 54.6963 25.8411C53.7932 26.7455 52.5687 27.2542 51.2914 27.2556ZM51.2914 18.1752C50.4507 18.1752 49.6289 18.4248 48.9299 18.8925C48.2309 19.3602 47.686 20.025 47.3643 20.8028C47.0426 21.5805 46.9584 22.4364 47.1224 23.262C47.2864 24.0877 47.6913 24.8461 48.2858 25.4414C48.8802 26.0367 49.6376 26.442 50.4622 26.6063C51.2867 26.7705 52.1414 26.6862 52.9181 26.3641C53.6948 26.0419 54.3587 25.4963 54.8258 24.7964C55.2928 24.0964 55.5421 23.2735 55.5421 22.4316C55.5408 21.3031 55.0926 20.2212 54.2957 19.4233C53.4988 18.6253 52.4184 18.1765 51.2914 18.1752Z" fill="#3F3D56"/>
<path d="M51.2914 40.8761C50.3386 40.8761 49.4072 40.5932 48.615 40.0632C47.8228 39.5331 47.2053 38.7797 46.8407 37.8982C46.4761 37.0168 46.3807 36.0468 46.5666 35.1111C46.7524 34.1753 47.2113 33.3158 47.885 32.6411C48.5587 31.9665 49.4171 31.5071 50.3516 31.3209C51.2861 31.1348 52.2547 31.2303 53.135 31.5954C54.0153 31.9606 54.7676 32.5789 55.297 33.3721C55.8263 34.1654 56.1089 35.0981 56.1089 36.0522C56.1075 37.3312 55.5994 38.5573 54.6963 39.4617C53.7932 40.366 52.5687 40.8747 51.2914 40.8761ZM51.2914 31.7958C50.4507 31.7958 49.6289 32.0454 48.9299 32.5131C48.2309 32.9808 47.686 33.6456 47.3643 34.4233C47.0426 35.2011 46.9584 36.0569 47.1224 36.8826C47.2864 37.7082 47.6913 38.4667 48.2858 39.0619C48.8802 39.6572 49.6376 40.0626 50.4622 40.2268C51.2867 40.3911 52.1414 40.3068 52.9181 39.9846C53.6948 39.6625 54.3587 39.1169 54.8258 38.4169C55.2928 37.717 55.5421 36.894 55.5421 36.0522C55.5408 34.9237 55.0926 33.8418 54.2957 33.0439C53.4988 32.2459 52.4184 31.797 51.2914 31.7958Z" fill="#3F3D56"/>
<path d="M51.2914 53.078C50.3386 53.078 49.4072 52.795 48.615 52.265C47.8228 51.7349 47.2053 50.9815 46.8407 50.1001C46.4761 49.2186 46.3807 48.2487 46.5666 47.3129C46.7524 46.3771 47.2113 45.5176 47.885 44.843C48.5587 44.1683 49.4171 43.7089 50.3516 43.5227C51.2861 43.3366 52.2547 43.4321 53.135 43.7973C54.0153 44.1624 54.7676 44.7807 55.297 45.574C55.8263 46.3673 56.1089 47.2999 56.1089 48.254C56.1075 49.533 55.5994 50.7591 54.6963 51.6635C53.7932 52.5678 52.5687 53.0765 51.2914 53.078ZM51.2914 43.9976C50.4507 43.9976 49.6289 44.2472 48.9299 44.7149C48.2309 45.1826 47.686 45.8474 47.3643 46.6251C47.0426 47.4029 46.9584 48.2587 47.1224 49.0844C47.2864 49.9101 47.6913 50.6685 48.2858 51.2638C48.8802 51.859 49.6376 52.2644 50.4622 52.4287C51.2867 52.5929 52.1414 52.5086 52.9181 52.1864C53.6948 51.8643 54.3587 51.3187 54.8258 50.6188C55.2928 49.9188 55.5421 49.0959 55.5421 48.254C55.5408 47.1255 55.0926 46.0436 54.2957 45.2457C53.4988 44.4477 52.4184 43.9989 51.2914 43.9976Z" fill="#3F3D56"/>
<path d="M280.262 169.137H279.695V164.88C279.695 164.655 279.785 164.438 279.944 164.279C280.103 164.119 280.32 164.029 280.545 164.029H281.962C282.037 164.029 282.109 163.999 282.162 163.946C282.215 163.893 282.245 163.82 282.245 163.745V160.908C282.245 160.832 282.215 160.76 282.162 160.707C282.109 160.654 282.037 160.624 281.962 160.624H280.545C280.32 160.624 280.103 160.534 279.944 160.374C279.785 160.215 279.695 159.998 279.695 159.773V158.354C279.695 158.278 279.665 158.206 279.612 158.153C279.559 158.1 279.487 158.07 279.411 158.07H276.861C276.636 158.07 276.42 157.98 276.26 157.82C276.101 157.661 276.011 157.444 276.011 157.219V156.935C276.011 156.86 275.981 156.788 275.928 156.734C275.875 156.681 275.803 156.651 275.728 156.651H265.526C265.451 156.651 265.379 156.681 265.326 156.734C265.272 156.788 265.243 156.86 265.242 156.935V157.219C265.242 157.444 265.153 157.661 264.993 157.82C264.834 157.98 264.618 158.07 264.392 158.07H261.842C261.767 158.07 261.695 158.1 261.642 158.153C261.588 158.206 261.559 158.278 261.559 158.354V159.773C261.558 159.998 261.469 160.215 261.309 160.374C261.15 160.534 260.934 160.624 260.708 160.624H259.292C259.216 160.624 259.144 160.654 259.091 160.707C259.038 160.76 259.008 160.832 259.008 160.908V163.745C259.008 163.82 259.038 163.893 259.091 163.946C259.144 163.999 259.216 164.029 259.292 164.029H260.992C261.217 164.029 261.433 164.119 261.593 164.279C261.752 164.438 261.842 164.655 261.842 164.88V169.137H261.275V164.88C261.275 164.805 261.245 164.733 261.192 164.68C261.139 164.626 261.067 164.597 260.992 164.596H259.292C259.066 164.596 258.85 164.506 258.691 164.347C258.531 164.187 258.442 163.971 258.441 163.745V160.908C258.442 160.682 258.531 160.465 258.691 160.306C258.85 160.146 259.066 160.057 259.292 160.056H260.708C260.784 160.056 260.856 160.026 260.909 159.973C260.962 159.92 260.992 159.848 260.992 159.773V158.354C260.992 158.128 261.082 157.912 261.241 157.752C261.4 157.592 261.617 157.503 261.842 157.502H264.392C264.468 157.502 264.54 157.472 264.593 157.419C264.646 157.366 264.676 157.294 264.676 157.219V156.935C264.676 156.709 264.766 156.493 264.925 156.333C265.084 156.174 265.3 156.084 265.526 156.084H275.728C275.953 156.084 276.169 156.174 276.328 156.333C276.488 156.493 276.577 156.709 276.578 156.935V157.219C276.578 157.294 276.608 157.366 276.661 157.419C276.714 157.472 276.786 157.502 276.861 157.502H279.411C279.637 157.503 279.853 157.592 280.012 157.752C280.172 157.912 280.261 158.128 280.262 158.354V159.773C280.262 159.848 280.291 159.92 280.345 159.973C280.398 160.026 280.47 160.056 280.545 160.056H281.962C282.187 160.057 282.403 160.146 282.563 160.306C282.722 160.465 282.812 160.682 282.812 160.908V163.745C282.812 163.971 282.722 164.187 282.563 164.347C282.403 164.506 282.187 164.596 281.962 164.596H280.545C280.47 164.597 280.398 164.626 280.345 164.68C280.291 164.733 280.262 164.805 280.262 164.88V169.137Z" fill="#3F3D56"/>
<path d="M279.411 189H262.125C261.9 189 261.684 188.91 261.524 188.75C261.365 188.591 261.275 188.374 261.275 188.149V175.947H261.842V188.149C261.842 188.224 261.872 188.296 261.925 188.349C261.978 188.403 262.05 188.432 262.125 188.432H279.411C279.487 188.432 279.559 188.403 279.612 188.349C279.665 188.296 279.695 188.224 279.695 188.149V175.947H280.262V188.149C280.261 188.374 280.172 188.591 280.012 188.75C279.853 188.91 279.637 189 279.411 189Z" fill="#3F3D56"/>
<path d="M283.095 171.123H261.842C261.529 171.123 261.275 171.377 261.275 171.691V177.366C261.275 177.679 261.529 177.933 261.842 177.933H283.095C283.408 177.933 283.662 177.679 283.662 177.366V171.691C283.662 171.377 283.408 171.123 283.095 171.123Z" fill="#FE4F60"/>
<path d="M281.253 176.231H260C259.775 176.23 259.559 176.141 259.399 175.981C259.24 175.821 259.15 175.605 259.15 175.379V169.704C259.15 169.478 259.24 169.262 259.399 169.102C259.559 168.943 259.775 168.853 260 168.853H281.253C281.479 168.853 281.695 168.943 281.854 169.102C282.014 169.262 282.103 169.478 282.104 169.704V175.379C282.103 175.605 282.014 175.821 281.854 175.981C281.695 176.141 281.479 176.23 281.253 176.231ZM260 169.42C259.925 169.42 259.853 169.45 259.8 169.504C259.747 169.557 259.717 169.629 259.717 169.704V175.379C259.717 175.455 259.747 175.527 259.8 175.58C259.853 175.633 259.925 175.663 260 175.663H281.253C281.329 175.663 281.401 175.633 281.454 175.58C281.507 175.527 281.537 175.455 281.537 175.379V169.704C281.537 169.629 281.507 169.557 281.454 169.504C281.401 169.45 281.329 169.42 281.253 169.42H260Z" fill="#3F3D56"/>
<path d="M270.06 154.097C269.307 149.016 269.108 143.867 269.466 138.743L270.06 130.261C266.789 136.778 267.528 145.355 270.06 154.097V154.097Z" fill="#D0CDE1"/>
<path d="M272.61 155.516C272.248 152.484 272.152 149.425 272.325 146.376L272.61 141.328C271.037 145.207 271.392 150.312 272.61 155.516Z" fill="#D0CDE1"/>
</g>
<defs>
<clipPath id="clip0">
<rect width="312" height="189" fill="white"/>
</clipPath>
</defs>
</svg>
