<svg width="42" height="15" viewBox="0 0 42 15" fill="none" xmlns="http://www.w3.org/2000/svg">
<path d="M5.39648 14.1758C2.33789 14.1758 0.808594 12.4971 0.808594 9.13965C0.808594 7.46973 1.22461 6.19531 2.05664 5.31641C2.88867 4.43164 4.08105 3.98926 5.63379 3.98926C6.77051 3.98926 7.79004 4.21191 8.69238 4.65723L7.90137 6.73145C7.47949 6.56152 7.08691 6.42383 6.72363 6.31836C6.36035 6.20703 5.99707 6.15137 5.63379 6.15137C4.23926 6.15137 3.54199 7.1416 3.54199 9.12207C3.54199 11.0439 4.23926 12.0049 5.63379 12.0049C6.14941 12.0049 6.62695 11.9375 7.06641 11.8027C7.50586 11.6621 7.94531 11.4453 8.38477 11.1523V13.4463C7.95117 13.7217 7.51172 13.9121 7.06641 14.0176C6.62695 14.123 6.07031 14.1758 5.39648 14.1758ZM12.8057 9.06934C12.8057 10.042 12.9639 10.7773 13.2803 11.2754C13.6025 11.7734 14.124 12.0225 14.8447 12.0225C15.5596 12.0225 16.0723 11.7764 16.3828 11.2842C16.6992 10.7861 16.8574 10.0479 16.8574 9.06934C16.8574 8.09668 16.6992 7.36719 16.3828 6.88086C16.0664 6.39453 15.5479 6.15137 14.8271 6.15137C14.1123 6.15137 13.5967 6.39453 13.2803 6.88086C12.9639 7.36133 12.8057 8.09082 12.8057 9.06934ZM19.5996 9.06934C19.5996 10.6689 19.1777 11.9199 18.334 12.8223C17.4902 13.7246 16.3154 14.1758 14.8096 14.1758C13.8662 14.1758 13.0342 13.9707 12.3135 13.5605C11.5928 13.1445 11.0391 12.5498 10.6523 11.7764C10.2656 11.0029 10.0723 10.1006 10.0723 9.06934C10.0723 7.46387 10.4912 6.21582 11.3291 5.3252C12.167 4.43457 13.3447 3.98926 14.8623 3.98926C15.8057 3.98926 16.6377 4.19434 17.3584 4.60449C18.0791 5.01465 18.6328 5.60352 19.0195 6.37109C19.4062 7.13867 19.5996 8.03809 19.5996 9.06934Z" fill="#42434D"/>
<path d="M24.9258 14.1758C23.7715 14.1758 22.8633 13.7275 22.2012 12.8311C21.5449 11.9346 21.2168 10.6924 21.2168 9.10449C21.2168 7.49316 21.5508 6.23926 22.2188 5.34277C22.8926 4.44043 23.8184 3.98926 24.9961 3.98926C26.2324 3.98926 27.1758 4.46973 27.8262 5.43066H27.9141C27.7793 4.69824 27.7119 4.04492 27.7119 3.4707V0.324219H30.4014V14H28.3447L27.8262 12.7256H27.7119C27.1025 13.6924 26.1738 14.1758 24.9258 14.1758ZM25.8662 12.04C26.5518 12.04 27.0527 11.8408 27.3691 11.4424C27.6914 11.0439 27.8672 10.3672 27.8965 9.41211V9.12207C27.8965 8.06738 27.7324 7.31152 27.4043 6.85449C27.082 6.39746 26.5547 6.16895 25.8223 6.16895C25.2246 6.16895 24.7588 6.42383 24.4248 6.93359C24.0967 7.4375 23.9326 8.17285 23.9326 9.13965C23.9326 10.1064 24.0996 10.833 24.4336 11.3193C24.7676 11.7998 25.2451 12.04 25.8662 12.04ZM39.4453 14L38.9268 12.6641H38.8564C38.4053 13.2324 37.9395 13.6279 37.459 13.8506C36.9844 14.0674 36.3633 14.1758 35.5957 14.1758C34.6523 14.1758 33.9082 13.9062 33.3633 13.3672C32.8242 12.8281 32.5547 12.0605 32.5547 11.0645C32.5547 10.0215 32.918 9.25391 33.6445 8.76172C34.377 8.26367 35.4785 7.98828 36.9492 7.93555L38.6543 7.88281V7.45215C38.6543 6.45605 38.1445 5.95801 37.125 5.95801C36.3398 5.95801 35.417 6.19531 34.3564 6.66992L33.4688 4.85938C34.5996 4.26758 35.8535 3.97168 37.2305 3.97168C38.5488 3.97168 39.5596 4.25879 40.2627 4.83301C40.9658 5.40723 41.3174 6.28027 41.3174 7.45215V14H39.4453ZM38.6543 9.44727L37.6172 9.48242C36.8379 9.50586 36.2578 9.64648 35.877 9.9043C35.4961 10.1621 35.3057 10.5547 35.3057 11.082C35.3057 11.8379 35.7393 12.2158 36.6064 12.2158C37.2275 12.2158 37.7227 12.0371 38.0918 11.6797C38.4668 11.3223 38.6543 10.8477 38.6543 10.2559V9.44727Z" fill="#DE2E49"/>
</svg>
