<svg width="21" height="20" viewBox="0 0 21 20" fill="none" xmlns="http://www.w3.org/2000/svg">
<path d="M13.3201 9.76144C10.7792 13.9153 11.6534 19.0822 11.6534 19.0822C11.6534 19.0822 16.6472 17.5144 19.1881 13.3606C21.7289 9.20676 20.8548 4.03984 20.8548 4.03984C20.8548 4.03984 15.861 5.60761 13.3201 9.76144Z" fill="#42434D"/>
<path d="M11.5496 19.1165L11.4052 19.0936C11.3529 19.0853 6.15289 18.2225 3.03862 14.4914C-0.0756639 10.7602 -0.000720703 5.4826 0.000300196 5.42972L0.00340015 5.28331L0.147868 5.30622C0.200112 5.31452 5.40014 6.17727 8.51442 9.90851C11.6287 13.6396 11.5537 18.9172 11.5527 18.9701L11.5496 19.1165Z" fill="#DE2E49"/>
<path d="M11.7548 19.2479L11.6152 19.2041C11.5648 19.1882 6.54637 17.5741 4.00982 13.4274C1.47328 9.28065 2.31734 4.07067 2.32606 4.01851L2.35049 3.87413L2.49007 3.91793C2.54054 3.93378 7.55892 5.54793 10.0955 9.6947C12.632 13.8413 11.788 19.0513 11.7792 19.1035L11.7548 19.2479ZM2.55637 4.21044C2.44085 5.08484 1.98037 9.62033 4.22742 13.2939C6.47459 16.9673 10.7187 18.6172 11.5489 18.9116C11.6644 18.0372 12.1249 13.5017 9.87787 9.82823C7.6307 6.15466 3.38659 4.50482 2.55636 4.21044H2.55637Z" fill="#3F3D56"/>
<path d="M11.8119 5.62254C13.3624 5.62254 14.6193 4.36389 14.6193 2.81127C14.6193 1.25865 13.3624 0 11.8119 0C10.2613 0 9.00439 1.25865 9.00439 2.81127C9.00439 4.36389 10.2613 5.62254 11.8119 5.62254Z" fill="#42434D"/>
</svg>
