<svg width="36" height="32" viewBox="0 0 36 32" fill="none" xmlns="http://www.w3.org/2000/svg">
<path d="M18.9301 1.40073C18.9301 0.821987 18.461 0.352936 17.8823 0.352936C17.3035 0.352936 16.8345 0.821987 16.8345 1.40073V5.88987C16.8345 6.46862 17.3035 6.93767 17.8823 6.93767C18.461 6.93767 18.9301 6.46862 18.9301 5.88987V1.40073Z" fill="#DE2E49"/>
<path d="M12.6524 7.75325C12.8568 7.95762 13.125 8.06022 13.3932 8.06022C13.6612 8.06022 13.9294 7.9579 14.134 7.75325C14.5431 7.34396 14.5431 6.68062 14.134 6.27133L11.8892 4.02676C11.4802 3.61746 10.8169 3.61746 10.4076 4.02676C9.99826 4.43605 9.99826 5.09938 10.4076 5.50868L12.6524 7.75325Z" fill="#DE2E49"/>
<path d="M22.3715 8.05995C22.6397 8.05995 22.908 7.95762 23.1123 7.75298L25.3572 5.50841C25.7662 5.09938 25.7662 4.43578 25.3572 4.02676C24.9479 3.61746 24.2846 3.61746 23.8753 4.02676L21.6307 6.27133C21.2214 6.68063 21.2214 7.34396 21.6307 7.75298C21.8353 7.95762 22.1036 8.05995 22.3715 8.05995Z" fill="#DE2E49"/>
<path d="M14.8511 10.4756C14.8402 10.4846 14.8298 10.4934 14.82 10.5015L10.2899 14.3849C9.87028 14.7446 9.33383 14.9429 8.78046 14.9429H5.53585C2.47842 14.9429 0 17.417 0 20.4788V30.581C0 31.1595 0.469052 31.6288 1.04779 31.6288H10.0261C10.6051 31.6288 11.0739 31.1592 11.0739 30.581V20.962L16.4056 16.3918C16.6779 16.1585 16.8346 15.8177 16.8346 15.4592V11.4364C16.8346 10.4131 15.646 9.83112 14.8511 10.4756Z" fill="#DE2E49"/>
<path d="M30.2289 14.9429H26.9843C26.4309 14.9429 25.8945 14.7446 25.4748 14.3847L20.9447 10.5015C20.9349 10.4934 20.9245 10.4846 20.9136 10.4756C20.1188 9.83112 18.9302 10.4131 18.9302 11.4364V15.4592C18.9302 15.8177 19.0868 16.1585 19.3591 16.3918L24.6909 20.962V30.5807C24.6909 31.1592 25.1596 31.6285 25.7387 31.6285H34.7169C35.2957 31.6285 35.7647 31.1595 35.7647 30.5807V20.4788C35.7647 17.417 33.2863 14.9429 30.2289 14.9429Z" fill="#DE2E49"/>
<path d="M9.95162 10.528C9.95162 8.09378 7.97118 6.11334 5.53697 6.11334C3.10275 6.11334 1.12231 8.09378 1.12231 10.528C1.12231 12.9625 3.10275 14.9429 5.53697 14.9429C7.97118 14.9429 9.95162 12.9625 9.95162 10.528Z" fill="#DE2E49"/>
<path d="M34.6425 10.528C34.6425 8.09378 32.6621 6.11334 30.2279 6.11334C27.7937 6.11334 25.8132 8.09378 25.8132 10.528C25.8132 12.9625 27.7937 14.9429 30.2279 14.9429C32.6621 14.9429 34.6425 12.9625 34.6425 10.528Z" fill="#DE2E49"/>
</svg>
