<svg width="27" height="27" viewBox="0 0 27 27" fill="none" xmlns="http://www.w3.org/2000/svg">
<path d="M19.814 17.4278C21.1427 15.6134 21.9374 13.3848 21.9374 10.9688C21.9374 4.92081 17.0166 0 10.9687 0C4.92073 0 0 4.92081 0 10.9688C0 17.0168 4.92078 21.9376 10.9687 21.9376C13.3847 21.9376 15.6136 21.1428 17.4279 19.8141L24.6138 27L27 24.6138C27 24.6137 19.814 17.4278 19.814 17.4278V17.4278ZM10.9687 18.5625C6.78129 18.5625 3.37501 15.1563 3.37501 10.9688C3.37501 6.78133 6.78129 3.37503 10.9687 3.37503C15.1562 3.37503 18.5624 6.78133 18.5624 10.9688C18.5624 15.1563 15.1561 18.5625 10.9687 18.5625Z" fill="#ffffff"/>
</svg>
